<?xml version='1.0' encoding='UTF-8'?>
<svg width="82mm" height="82mm" version="1.1" viewBox="0 0 82 82" xmlns="http://www.w3.org/2000/svg"><path d="M8,8H10V10H8zM10,8H12V10H10zM12,8H14V10H12zM14,8H16V10H14zM16,8H18V10H16zM18,8H20V10H18zM20,8H22V10H20zM24,8H26V10H24zM26,8H28V10H26zM28,8H30V10H28zM30,8H32V10H30zM32,8H34V10H32zM34,8H36V10H34zM40,8H42V10H40zM42,8H44V10H42zM46,8H48V10H46zM48,8H50V10H48zM50,8H52V10H50zM54,8H56V10H54zM60,8H62V10H60zM62,8H64V10H62zM64,8H66V10H64zM66,8H68V10H66zM68,8H70V10H68zM70,8H72V10H70zM72,8H74V10H72zM8,10H10V12H8zM20,10H22V12H20zM24,10H26V12H24zM34,10H36V12H34zM40,10H42V12H40zM44,10H46V12H44zM54,10H56V12H54zM60,10H62V12H60zM72,10H74V12H72zM8,12H10V14H8zM12,12H14V14H12zM14,12H16V14H14zM16,12H18V14H16zM20,12H22V14H20zM26,12H28V14H26zM28,12H30V14H28zM30,12H32V14H30zM40,12H42V14H40zM42,12H44V14H42zM46,12H48V14H46zM48,12H50V14H48zM52,12H54V14H52zM60,12H62V14H60zM64,12H66V14H64zM66,12H68V14H66zM68,12H70V14H68zM72,12H74V14H72zM8,14H10V16H8zM12,14H14V16H12zM14,14H16V16H14zM16,14H18V16H16zM20,14H22V16H20zM24,14H26V16H24zM26,14H28V16H26zM32,14H34V16H32zM36,14H38V16H36zM40,14H42V16H40zM46,14H48V16H46zM48,14H50V16H48zM52,14H54V16H52zM54,14H56V16H54zM60,14H62V16H60zM64,14H66V16H64zM66,14H68V16H66zM68,14H70V16H68zM72,14H74V16H72zM8,16H10V18H8zM12,16H14V18H12zM14,16H16V18H14zM16,16H18V18H16zM20,16H22V18H20zM28,16H30V18H28zM34,16H36V18H34zM36,16H38V18H36zM42,16H44V18H42zM48,16H50V18H48zM52,16H54V18H52zM56,16H58V18H56zM60,16H62V18H60zM64,16H66V18H64zM66,16H68V18H66zM68,16H70V18H68zM72,16H74V18H72zM8,18H10V20H8zM20,18H22V20H20zM28,18H30V20H28zM32,18H34V20H32zM36,18H38V20H36zM46,18H48V20H46zM48,18H50V20H48zM50,18H52V20H50zM52,18H54V20H52zM56,18H58V20H56zM60,18H62V20H60zM72,18H74V20H72zM8,20H10V22H8zM10,20H12V22H10zM12,20H14V22H12zM14,20H16V22H14zM16,20H18V22H16zM18,20H20V22H18zM20,20H22V22H20zM24,20H26V22H24zM28,20H30V22H28zM32,20H34V22H32zM36,20H38V22H36zM40,20H42V22H40zM44,20H46V22H44zM48,20H50V22H48zM52,20H54V22H52zM56,20H58V22H56zM60,20H62V22H60zM62,20H64V22H62zM64,20H66V22H64zM66,20H68V22H66zM68,20H70V22H68zM70,20H72V22H70zM72,20H74V22H72zM24,22H26V24H24zM26,22H28V24H26zM28,22H30V24H28zM32,22H34V24H32zM42,22H44V24H42zM48,22H50V24H48zM54,22H56V24H54zM8,24H10V26H8zM12,24H14V26H12zM14,24H16V26H14zM18,24H20V26H18zM20,24H22V26H20zM22,24H24V26H22zM30,24H32V26H30zM32,24H34V26H32zM36,24H38V26H36zM40,24H42V26H40zM42,24H44V26H42zM44,24H46V26H44zM46,24H48V26H46zM50,24H52V26H50zM60,24H62V26H60zM66,24H68V26H66zM70,24H72V26H70zM72,24H74V26H72zM8,26H10V28H8zM16,26H18V28H16zM18,26H20V28H18zM22,26H24V28H22zM28,26H30V28H28zM32,26H34V28H32zM40,26H42V28H40zM46,26H48V28H46zM50,26H52V28H50zM54,26H56V28H54zM60,26H62V28H60zM62,26H64V28H62zM66,26H68V28H66zM68,26H70V28H68zM70,26H72V28H70zM72,26H74V28H72zM10,28H12V30H10zM14,28H16V30H14zM20,28H22V30H20zM22,28H24V30H22zM24,28H26V30H24zM28,28H30V30H28zM32,28H34V30H32zM36,28H38V30H36zM42,28H44V30H42zM54,28H56V30H54zM56,28H58V30H56zM58,28H60V30H58zM62,28H64V30H62zM64,28H66V30H64zM66,28H68V30H66zM70,28H72V30H70zM72,28H74V30H72zM8,30H10V32H8zM12,30H14V32H12zM14,30H16V32H14zM22,30H24V32H22zM24,30H26V32H24zM28,30H30V32H28zM30,30H32V32H30zM32,30H34V32H32zM34,30H36V32H34zM36,30H38V32H36zM44,30H46V32H44zM46,30H48V32H46zM48,30H50V32H48zM52,30H54V32H52zM54,30H56V32H54zM58,30H60V32H58zM62,30H64V32H62zM66,30H68V32H66zM8,32H10V34H8zM10,32H12V34H10zM12,32H14V34H12zM16,32H18V34H16zM20,32H22V34H20zM26,32H28V34H26zM32,32H34V34H32zM38,32H40V34H38zM44,32H46V34H44zM46,32H48V34H46zM50,32H52V34H50zM56,32H58V34H56zM58,32H60V34H58zM62,32H64V34H62zM64,32H66V34H64zM66,32H68V34H66zM70,32H72V34H70zM12,34H14V36H12zM22,34H24V36H22zM24,34H26V36H24zM28,34H30V36H28zM30,34H32V36H30zM34,34H36V36H34zM40,34H42V36H40zM42,34H44V36H42zM44,34H46V36H44zM50,34H52V36H50zM56,34H58V36H56zM58,34H60V36H58zM62,34H64V36H62zM66,34H68V36H66zM70,34H72V36H70zM8,36H10V38H8zM12,36H14V38H12zM20,36H22V38H20zM24,36H26V38H24zM32,36H34V38H32zM34,36H36V38H34zM38,36H40V38H38zM40,36H42V38H40zM42,36H44V38H42zM50,36H52V38H50zM60,36H62V38H60zM62,36H64V38H62zM64,36H66V38H64zM8,38H10V40H8zM12,38H14V40H12zM14,38H16V40H14zM18,38H20V40H18zM30,38H32V40H30zM32,38H34V40H32zM34,38H36V40H34zM36,38H38V40H36zM40,38H42V40H40zM44,38H46V40H44zM46,38H48V40H46zM48,38H50V40H48zM50,38H52V40H50zM52,38H54V40H52zM54,38H56V40H54zM58,38H60V40H58zM60,38H62V40H60zM62,38H64V40H62zM64,38H66V40H64zM68,38H70V40H68zM8,40H10V42H8zM16,40H18V42H16zM18,40H20V42H18zM20,40H22V42H20zM22,40H24V42H22zM26,40H28V42H26zM30,40H32V42H30zM32,40H34V42H32zM34,40H36V42H34zM38,40H40V42H38zM40,40H42V42H40zM44,40H46V42H44zM46,40H48V42H46zM48,40H50V42H48zM50,40H52V42H50zM52,40H54V42H52zM58,40H60V42H58zM60,40H62V42H60zM64,40H66V42H64zM66,40H68V42H66zM68,40H70V42H68zM8,42H10V44H8zM10,42H12V44H10zM12,42H14V44H12zM14,42H16V44H14zM18,42H20V44H18zM26,42H28V44H26zM30,42H32V44H30zM34,42H36V44H34zM38,42H40V44H38zM42,42H44V44H42zM48,42H50V44H48zM50,42H52V44H50zM54,42H56V44H54zM56,42H58V44H56zM60,42H62V44H60zM64,42H66V44H64zM66,42H68V44H66zM72,42H74V44H72zM8,44H10V46H8zM14,44H16V46H14zM18,44H20V46H18zM20,44H22V46H20zM22,44H24V46H22zM32,44H34V46H32zM38,44H40V46H38zM40,44H42V46H40zM42,44H44V46H42zM48,44H50V46H48zM52,44H54V46H52zM58,44H60V46H58zM62,44H64V46H62zM64,44H66V46H64zM68,44H70V46H68zM70,44H72V46H70zM12,46H14V48H12zM14,46H16V48H14zM16,46H18V48H16zM18,46H20V48H18zM22,46H24V48H22zM26,46H28V48H26zM30,46H32V48H30zM32,46H34V48H32zM38,46H40V48H38zM46,46H48V48H46zM48,46H50V48H48zM50,46H52V48H50zM54,46H56V48H54zM58,46H60V48H58zM64,46H66V48H64zM20,48H22V50H20zM22,48H24V50H22zM26,48H28V50H26zM32,48H34V50H32zM36,48H38V50H36zM44,48H46V50H44zM46,48H48V50H46zM48,48H50V50H48zM66,48H68V50H66zM68,48H70V50H68zM72,48H74V50H72zM8,50H10V52H8zM12,50H14V52H12zM14,50H16V52H14zM16,50H18V52H16zM22,50H24V52H22zM24,50H26V52H24zM26,50H28V52H26zM28,50H30V52H28zM30,50H32V52H30zM34,50H36V52H34zM38,50H40V52H38zM42,50H44V52H42zM44,50H46V52H44zM50,50H52V52H50zM54,50H56V52H54zM56,50H58V52H56zM60,50H62V52H60zM66,50H68V52H66zM72,50H74V52H72zM16,52H18V54H16zM18,52H20V54H18zM20,52H22V54H20zM22,52H24V54H22zM26,52H28V54H26zM28,52H30V54H28zM30,52H32V54H30zM40,52H42V54H40zM44,52H46V54H44zM52,52H54V54H52zM54,52H56V54H54zM56,52H58V54H56zM58,52H60V54H58zM60,52H62V54H60zM62,52H64V54H62zM66,52H68V54H66zM68,52H70V54H68zM70,52H72V54H70zM72,52H74V54H72zM10,54H12V56H10zM14,54H16V56H14zM16,54H18V56H16zM22,54H24V56H22zM24,54H26V56H24zM26,54H28V56H26zM28,54H30V56H28zM32,54H34V56H32zM36,54H38V56H36zM40,54H42V56H40zM44,54H46V56H44zM46,54H48V56H46zM52,54H54V56H52zM58,54H60V56H58zM64,54H66V56H64zM66,54H68V56H66zM70,54H72V56H70zM72,54H74V56H72zM8,56H10V58H8zM14,56H16V58H14zM16,56H18V58H16zM20,56H22V58H20zM22,56H24V58H22zM28,56H30V58H28zM30,56H32V58H30zM32,56H34V58H32zM36,56H38V58H36zM38,56H40V58H38zM42,56H44V58H42zM54,56H56V58H54zM56,56H58V58H56zM58,56H60V58H58zM60,56H62V58H60zM62,56H64V58H62zM64,56H66V58H64zM66,56H68V58H66zM70,56H72V58H70zM72,56H74V58H72zM24,58H26V60H24zM26,58H28V60H26zM28,58H30V60H28zM30,58H32V60H30zM32,58H34V60H32zM34,58H36V60H34zM38,58H40V60H38zM40,58H42V60H40zM42,58H44V60H42zM46,58H48V60H46zM54,58H56V60H54zM56,58H58V60H56zM64,58H66V60H64zM66,58H68V60H66zM8,60H10V62H8zM10,60H12V62H10zM12,60H14V62H12zM14,60H16V62H14zM16,60H18V62H16zM18,60H20V62H18zM20,60H22V62H20zM24,60H26V62H24zM26,60H28V62H26zM30,60H32V62H30zM34,60H36V62H34zM46,60H48V62H46zM52,60H54V62H52zM54,60H56V62H54zM56,60H58V62H56zM60,60H62V62H60zM64,60H66V62H64zM70,60H72V62H70zM8,62H10V64H8zM20,62H22V64H20zM24,62H26V64H24zM30,62H32V64H30zM32,62H34V64H32zM36,62H38V64H36zM38,62H40V64H38zM40,62H42V64H40zM48,62H50V64H48zM50,62H52V64H50zM52,62H54V64H52zM54,62H56V64H54zM56,62H58V64H56zM64,62H66V64H64zM66,62H68V64H66zM68,62H70V64H68zM72,62H74V64H72zM8,64H10V66H8zM12,64H14V66H12zM14,64H16V66H14zM16,64H18V66H16zM20,64H22V66H20zM26,64H28V66H26zM30,64H32V66H30zM34,64H36V66H34zM42,64H44V66H42zM48,64H50V66H48zM54,64H56V66H54zM56,64H58V66H56zM58,64H60V66H58zM60,64H62V66H60zM62,64H64V66H62zM64,64H66V66H64zM68,64H70V66H68zM70,64H72V66H70zM8,66H10V68H8zM12,66H14V68H12zM14,66H16V68H14zM16,66H18V68H16zM20,66H22V68H20zM24,66H26V68H24zM28,66H30V68H28zM32,66H34V68H32zM36,66H38V68H36zM44,66H46V68H44zM46,66H48V68H46zM48,66H50V68H48zM50,66H52V68H50zM54,66H56V68H54zM62,66H64V68H62zM70,66H72V68H70zM72,66H74V68H72zM8,68H10V70H8zM12,68H14V70H12zM14,68H16V70H14zM16,68H18V70H16zM20,68H22V70H20zM24,68H26V70H24zM26,68H28V70H26zM28,68H30V70H28zM32,68H34V70H32zM46,68H48V70H46zM50,68H52V70H50zM52,68H54V70H52zM54,68H56V70H54zM56,68H58V70H56zM60,68H62V70H60zM62,68H64V70H62zM8,70H10V72H8zM20,70H22V72H20zM28,70H30V72H28zM34,70H36V72H34zM38,70H40V72H38zM40,70H42V72H40zM42,70H44V72H42zM46,70H48V72H46zM52,70H54V72H52zM56,70H58V72H56zM60,70H62V72H60zM62,70H64V72H62zM64,70H66V72H64zM72,70H74V72H72zM8,72H10V74H8zM10,72H12V74H10zM12,72H14V74H12zM14,72H16V74H14zM16,72H18V74H16zM18,72H20V74H18zM20,72H22V74H20zM24,72H26V74H24zM26,72H28V74H26zM30,72H32V74H30zM32,72H34V74H32zM34,72H36V74H34zM38,72H40V74H38zM42,72H44V74H42zM44,72H46V74H44zM50,72H52V74H50zM54,72H56V74H54zM64,72H66V74H64zM68,72H70V74H68z" id="qr-path" fill="#000000" fill-opacity="1" fill-rule="nonzero" stroke="none" /></svg>